<svg id="SvgjsSvg1001" width="288" height="288" xmlns="http://www.w3.org/2000/svg" version="1.1" xmlns:xlink="http://www.w3.org/1999/xlink" xmlns:svgjs="http://svgjs.com/svgjs"><defs id="SvgjsDefs1002"></defs><g id="SvgjsG1008" transform="matrix(1,0,0,1,0,0)"><svg xmlns="http://www.w3.org/2000/svg" width="288" height="288" enable-background="new 0 0 180.619 42.725" viewBox="0 0 180.619 42.725"><rect width="20" height="8" x="52" y="1.783" fill="#231f20" class="color231F20 svgShape"></rect><rect width="8" height="26" x="13" y="1.783" fill="#231f20" class="color231F20 svgShape"></rect><rect width="8" height="38" x="26" y="1.783" fill="#231f20" class="color231F20 svgShape"></rect><rect width="8" height="38" y="1.783" fill="#231f20" class="color231F20 svgShape"></rect><rect width="8" height="25" x="52" y="14.783" fill="#231f20" class="color231F20 svgShape"></rect><rect width="8" height="8" x="39" y="1.783" fill="#231f20" class="color231F20 svgShape"></rect><rect width="8" height="25" x="39" y="14.783" fill="#19324b" class="colorA41F35 svgShape"></rect><g fill="#000000" class="color000 svgShape"><path fill="#010101" d="M89.032 1.802h3.262l1.574 6.611h.025l1.624-6.611h3.225V10.7h-2.1V3.789h-.025L94.855 10.7h-1.962l-1.812-6.911h-.025V10.7h-2.024V1.802zM106.043 9.312c0 .462.013.975.175 1.387h-1.8c-.074-.225-.111-.462-.125-.688h-.024c-.325.525-1.3.862-1.999.862-1.275 0-2.225-.7-2.225-1.975 0-1.6 1.287-2.162 3.411-2.461l.712-.1v-.55c0-.5-.399-.712-.924-.712-.625 0-.926.225-1.025.887h-1.875c.062-1.912 1.838-2.087 2.737-2.087 1.812 0 2.95.425 2.962 1.924V9.312zM104.168 7.463l-1.312.375c-.487.138-.938.325-.938.862 0 .525.438.75.913.75.762 0 1.336-.513 1.336-1.525V7.463zM112.155 6.013c-.388-.462-1.225-.712-1.837-.712-.487 0-.838.175-.838.512 0 1.137 3.938.2 3.938 2.687 0 1.75-1.55 2.374-3 2.374-1.449 0-2.273-.412-3.248-1.312l1.211-1.05c.601.575 1.213.938 2.1.938.325 0 1.062-.075 1.062-.675 0-1.038-3.937-.213-3.937-2.575 0-1.674 1.462-2.324 2.812-2.324 1.025 0 2.037.362 2.938.962L112.155 6.013zM119.105 6.013c-.387-.462-1.225-.712-1.837-.712-.487 0-.837.175-.837.512 0 1.137 3.936.2 3.936 2.687 0 1.75-1.549 2.374-2.998 2.374-1.45 0-2.275-.412-3.25-1.312l1.213-1.05c.6.575 1.212.938 2.1.938.324 0 1.062-.075 1.062-.675 0-1.038-3.937-.213-3.937-2.575 0-1.674 1.463-2.324 2.812-2.324 1.024 0 2.037.362 2.936.962L119.105 6.013zM127.355 9.312c0 .462.013.975.175 1.387h-1.8c-.074-.225-.111-.462-.125-.688h-.024c-.325.525-1.3.862-1.999.862-1.275 0-2.225-.7-2.225-1.975 0-1.6 1.287-2.162 3.411-2.461l.712-.1v-.55c0-.5-.399-.712-.924-.712-.625 0-.926.225-1.025.887h-1.875c.062-1.912 1.838-2.087 2.737-2.087 1.812 0 2.95.425 2.962 1.924V9.312zM125.48 7.463l-1.312.375c-.487.138-.938.325-.938.862 0 .525.438.75.913.75.762 0 1.336-.513 1.336-1.525V7.463zM133.468 6.288c-.35-.75-.95-.912-1.249-.912-1.113 0-1.513.862-1.513 2s.476 2 1.513 2c.6 0 1.074-.225 1.387-.975l1.399.712c-.6 1.062-1.687 1.762-2.962 1.762-1.986 0-3.361-1.262-3.361-3.499 0-2.199 1.462-3.499 3.299-3.499 1.263 0 2.35.462 2.987 1.625L133.468 6.288zM136.107 1.802h1.949v2.875h.024c.375-.513 1.212-.8 1.825-.8 1.399 0 2.086.812 2.086 2.149V10.7h-1.949V6.713c0-1.025-.55-1.262-.975-1.262-.449 0-1.012.287-1.012 1.524V10.7h-1.949V1.802zM149.63 10.7h-1.949v-.587c-.5.587-1.325.762-1.925.762-1.574 0-2.012-.912-2.012-1.912V4.051h1.949V8.4c0 .587.213.9.949.9.562 0 1.038-.312 1.038-1.038V4.051h1.949V10.7zM155.692 6.013c-.388-.462-1.225-.712-1.837-.712-.487 0-.838.175-.838.512 0 1.137 3.938.2 3.938 2.687 0 1.75-1.55 2.374-3 2.374-1.449 0-2.273-.412-3.248-1.312l1.211-1.05c.601.575 1.213.938 2.1.938.325 0 1.062-.075 1.062-.675 0-1.038-3.937-.213-3.937-2.575 0-1.674 1.462-2.324 2.812-2.324 1.025 0 2.037.362 2.938.962L155.692 6.013zM159.807 7.775c.012 1.275.824 1.675 1.449 1.675.725 0 1.062-.375 1.625-1.175l1.461.762c-.674 1.25-1.736 1.837-3.224 1.837-2.062 0-3.262-1.424-3.262-3.299 0-2.35 1.237-3.699 3.262-3.699 2.425 0 3.249 1.85 3.262 3.899H159.807zM162.43 6.576c-.062-.975-.762-1.274-1.324-1.274s-1.236.399-1.324 1.274H162.43zM169.03 5.376h-1.163v3.262c0 .525.264.663.613.663.213 0 .487-.025.588-.038V10.8c-.25.025-.826.075-1.25.075-1.662 0-1.9-1.037-1.9-2V5.376h-.949v-1.2h.949V2.252h1.949v1.924h1.163V5.376zM173.43 5.376h-1.162v3.262c0 .525.263.663.613.663.212 0 .486-.025.586-.038V10.8c-.249.025-.824.075-1.249.075-1.662 0-1.899-1.037-1.899-2V5.376h-.949v-1.2h.949V2.252h1.949v1.924h1.162V5.376zM178.854 6.013c-.388-.462-1.225-.712-1.837-.712-.487 0-.838.175-.838.512 0 1.137 3.938.2 3.938 2.687 0 1.75-1.55 2.374-3 2.374-1.449 0-2.273-.412-3.248-1.312l1.211-1.05c.601.575 1.213.938 2.1.938.325 0 1.062-.075 1.062-.675 0-1.038-3.937-.213-3.937-2.575 0-1.674 1.462-2.324 2.812-2.324 1.025 0 2.037.362 2.938.962L178.854 6.013zM89.082 16.352h2.225v8.898h-2.225V16.352zM93.044 18.601h1.95v.587c.5-.587 1.324-.762 1.924-.762 1.574 0 2.012.912 2.012 1.912v4.912H96.98v-4.162c0-.65-.199-1.087-.949-1.087-.787 0-1.037.512-1.037 1.112v4.137h-1.95V18.601zM104.992 20.563c-.387-.462-1.225-.712-1.836-.712-.488 0-.838.175-.838.512 0 1.137 3.937.2 3.937 2.688 0 1.749-1.55 2.373-2.999 2.373s-2.274-.412-3.25-1.312l1.213-1.05c.6.574 1.213.938 2.1.938.324 0 1.062-.075 1.062-.675 0-1.038-3.938-.213-3.938-2.575 0-1.674 1.463-2.324 2.812-2.324 1.025 0 2.037.362 2.937.962L104.992 20.563zM110.918 19.926h-1.162v3.262c0 .525.263.662.613.662.212 0 .486-.025.586-.037v1.537c-.249.025-.824.074-1.249.074-1.662 0-1.899-1.037-1.899-1.999v-3.499h-.949v-1.2h.949v-1.924h1.949v1.924h1.162V19.926zM112.031 17.851v-1.5h1.949v1.5H112.031zM113.98 18.601v6.649h-1.949v-6.649H113.98zM119.018 19.926h-1.162v3.262c0 .525.263.662.613.662.212 0 .486-.025.586-.037v1.537c-.249.025-.824.074-1.249.074-1.662 0-1.899-1.037-1.899-1.999v-3.499h-.949v-1.2h.949v-1.924h1.949v1.924h1.162V19.926zM126.018 25.25h-1.949v-.588c-.5.588-1.325.762-1.926.762-1.574 0-2.012-.912-2.012-1.912v-4.911h1.949v4.349c0 .587.213.899.95.899.562 0 1.038-.312 1.038-1.037v-4.211h1.949V25.25zM131.055 19.926h-1.162v3.262c0 .525.263.662.613.662.212 0 .486-.025.586-.037v1.537c-.249.025-.824.074-1.249.074-1.662 0-1.899-1.037-1.899-1.999v-3.499h-.949v-1.2h.949v-1.924h1.949v1.924h1.162V19.926zM133.643 22.325C133.655 23.6 134.468 24 135.092 24c.726 0 1.062-.375 1.625-1.175l1.463.763c-.676 1.249-1.737 1.836-3.225 1.836-2.062 0-3.262-1.424-3.262-3.299 0-2.349 1.237-3.699 3.262-3.699 2.424 0 3.249 1.85 3.262 3.899H133.643zM136.268 21.125c-.062-.975-.763-1.274-1.325-1.274-.562 0-1.237.399-1.325 1.274H136.268zM149.654 21.925c0 2.237-1.463 3.499-3.537 3.499s-3.537-1.262-3.537-3.499 1.463-3.499 3.537-3.499S149.654 19.688 149.654 21.925zM144.53 21.925c0 1.137.475 2 1.587 2s1.587-.862 1.587-2.075c0-1.062-.475-1.924-1.587-1.924S144.53 20.788 144.53 21.925zM151.18 19.926h-1.023v-1.2h1.023v-.65c0-.75.238-1.825 1.9-1.825.425 0 1.024.062 1.274.15v1.424h-.55c-.338 0-.675.1-.675.475v.425h1.2v1.2h-1.2v5.324h-1.95V19.926zM86.77 30.902h6.874v1.725h-2.325V39.8h-2.224v-7.173H86.77V30.902zM95.219 36.875c.013 1.275.825 1.676 1.449 1.676.726 0 1.062-.375 1.625-1.176l1.463.763c-.676 1.249-1.737 1.837-3.225 1.837-2.062 0-3.262-1.424-3.262-3.299 0-2.35 1.237-3.699 3.262-3.699 2.424 0 3.249 1.85 3.262 3.898H95.219zM97.844 35.676c-.062-.975-.763-1.275-1.325-1.275-.562 0-1.237.4-1.325 1.275H97.844zM105.468 35.389c-.35-.75-.95-.912-1.249-.912-1.113 0-1.513.861-1.513 1.999s.476 1.999 1.513 1.999c.6 0 1.074-.225 1.387-.975l1.399.713c-.6 1.062-1.687 1.762-2.962 1.762-1.986 0-3.361-1.262-3.361-3.499 0-2.199 1.462-3.499 3.299-3.499 1.263 0 2.35.463 2.987 1.625L105.468 35.389zM108.107 30.902h1.949v2.874h.024c.375-.513 1.212-.8 1.825-.8 1.399 0 2.086.812 2.086 2.149V39.8h-1.949v-3.986c0-1.024-.55-1.263-.975-1.263-.449 0-1.012.287-1.012 1.525V39.8h-1.949V30.902zM115.744 33.151h1.949v.587c.5-.587 1.324-.762 1.925-.762 1.574 0 2.012.912 2.012 1.912V39.8h-1.949v-4.161c0-.65-.2-1.088-.95-1.088-.787 0-1.037.513-1.037 1.112V39.8h-1.949V33.151zM129.979 36.476c0 2.237-1.462 3.499-3.536 3.499-2.075 0-3.537-1.262-3.537-3.499s1.462-3.499 3.537-3.499C128.518 32.977 129.979 34.238 129.979 36.476zM124.855 36.476c0 1.138.475 1.999 1.588 1.999 1.111 0 1.586-.861 1.586-2.074 0-1.062-.475-1.924-1.586-1.924C125.33 34.477 124.855 35.338 124.855 36.476zM131.256 39.8v-8.897h1.949V39.8H131.256zM141.555 36.476c0 2.237-1.463 3.499-3.537 3.499s-3.537-1.262-3.537-3.499 1.463-3.499 3.537-3.499S141.555 34.238 141.555 36.476zM136.431 36.476c0 1.138.475 1.999 1.587 1.999s1.587-.861 1.587-2.074c0-1.062-.475-1.924-1.587-1.924S136.431 35.338 136.431 36.476zM148.667 33.151v6.661c0 2.111-2.162 2.188-3.187 2.188-2 0-3.049-.676-3.062-2.301h2.025c.012.726.424 1.025 1.125 1.025.749 0 1.211-.15 1.211-1.125v-.762c-.424.412-1.249.549-1.836.549-1.863 0-2.588-1.499-2.588-3.174 0-1.625.85-3.236 2.612-3.236.726 0 1.35.162 1.899.699v-.524H148.667zM145.53 34.4c-.612 0-1.225.351-1.225 1.787 0 .801.175 1.775 1.2 1.775 1.249 0 1.287-1.088 1.287-1.775C146.793 34.838 146.13 34.4 145.53 34.4zM150.105 40.475c.225.013.45.025.662.025.588 0 .9-.113.9-.488 0-.1-.013-.212-.176-.712l-1.949-6.148h2.05l1.075 5.073h.024l1.087-5.073h2.112l-2.337 7.086C153.217 41.25 152.793 42 151.643 42h-1.537V40.475z" class="color010101 svgShape"></path></g></svg></g></svg>